<mxfile host="app.diagrams.net" modified="2022-01-09T06:42:08.121Z" agent="5.0 (Macintosh; Intel Mac OS X 10_15_7) AppleWebKit/537.36 (KHTML, like Gecko) Chrome/96.0.4664.110 Safari/537.36" etag="hc7qWP5-CDwMRCYNFSh3" version="16.2.4" type="github">
  <diagram name="Page-1" id="82e54ff1-d628-8f03-85c4-9753963a91cd">
    <mxGraphModel dx="2946" dy="1186" grid="1" gridSize="10" guides="1" tooltips="1" connect="1" arrows="1" fold="1" page="1" pageScale="1" pageWidth="1100" pageHeight="850" background="none" math="0" shadow="0">
      <root>
        <mxCell id="0" />
        <mxCell id="1" parent="0" />
        <mxCell id="D8_jtYNJ-oi5tHmmAvt4-21" style="edgeStyle=orthogonalEdgeStyle;rounded=0;orthogonalLoop=1;jettySize=auto;html=1;exitX=1;exitY=0;exitDx=0;exitDy=0;entryX=0;entryY=0.5;entryDx=0;entryDy=0;fontColor=#000000;" edge="1" parent="1" source="D8_jtYNJ-oi5tHmmAvt4-4" target="D8_jtYNJ-oi5tHmmAvt4-5">
          <mxGeometry relative="1" as="geometry" />
        </mxCell>
        <mxCell id="D8_jtYNJ-oi5tHmmAvt4-22" style="edgeStyle=orthogonalEdgeStyle;rounded=0;orthogonalLoop=1;jettySize=auto;html=1;exitX=1;exitY=0.25;exitDx=0;exitDy=0;entryX=0;entryY=0.5;entryDx=0;entryDy=0;fontColor=#000000;" edge="1" parent="1" source="D8_jtYNJ-oi5tHmmAvt4-4" target="D8_jtYNJ-oi5tHmmAvt4-6">
          <mxGeometry relative="1" as="geometry" />
        </mxCell>
        <mxCell id="D8_jtYNJ-oi5tHmmAvt4-23" style="edgeStyle=orthogonalEdgeStyle;rounded=0;orthogonalLoop=1;jettySize=auto;html=1;exitX=1;exitY=0.75;exitDx=0;exitDy=0;entryX=0;entryY=0.5;entryDx=0;entryDy=0;fontColor=#000000;" edge="1" parent="1" source="D8_jtYNJ-oi5tHmmAvt4-4" target="D8_jtYNJ-oi5tHmmAvt4-7">
          <mxGeometry relative="1" as="geometry" />
        </mxCell>
        <mxCell id="D8_jtYNJ-oi5tHmmAvt4-24" style="edgeStyle=orthogonalEdgeStyle;rounded=0;orthogonalLoop=1;jettySize=auto;html=1;exitX=1;exitY=1;exitDx=0;exitDy=0;entryX=0;entryY=0.5;entryDx=0;entryDy=0;fontColor=#000000;" edge="1" parent="1" source="D8_jtYNJ-oi5tHmmAvt4-4" target="D8_jtYNJ-oi5tHmmAvt4-8">
          <mxGeometry relative="1" as="geometry" />
        </mxCell>
        <mxCell id="D8_jtYNJ-oi5tHmmAvt4-4" value="&lt;b&gt;&lt;font style=&quot;font-size: 16px&quot;&gt;2021下半年工作&lt;/font&gt;&lt;/b&gt;" style="rounded=1;whiteSpace=wrap;html=1;" vertex="1" parent="1">
          <mxGeometry x="60" y="400" width="120" height="60" as="geometry" />
        </mxCell>
        <mxCell id="D8_jtYNJ-oi5tHmmAvt4-26" style="edgeStyle=orthogonalEdgeStyle;rounded=0;orthogonalLoop=1;jettySize=auto;html=1;exitX=1;exitY=0.5;exitDx=0;exitDy=0;entryX=0;entryY=0.5;entryDx=0;entryDy=0;fontColor=#000000;" edge="1" parent="1" source="D8_jtYNJ-oi5tHmmAvt4-5" target="D8_jtYNJ-oi5tHmmAvt4-12">
          <mxGeometry relative="1" as="geometry" />
        </mxCell>
        <mxCell id="D8_jtYNJ-oi5tHmmAvt4-34" style="edgeStyle=orthogonalEdgeStyle;rounded=0;orthogonalLoop=1;jettySize=auto;html=1;exitX=1;exitY=0.25;exitDx=0;exitDy=0;entryX=0;entryY=0.5;entryDx=0;entryDy=0;fontSize=16;fontColor=#000000;" edge="1" parent="1" source="D8_jtYNJ-oi5tHmmAvt4-5" target="D8_jtYNJ-oi5tHmmAvt4-16">
          <mxGeometry relative="1" as="geometry" />
        </mxCell>
        <mxCell id="D8_jtYNJ-oi5tHmmAvt4-35" style="edgeStyle=orthogonalEdgeStyle;rounded=0;orthogonalLoop=1;jettySize=auto;html=1;exitX=1;exitY=0.75;exitDx=0;exitDy=0;entryX=0;entryY=0.5;entryDx=0;entryDy=0;fontSize=16;fontColor=#000000;" edge="1" parent="1" source="D8_jtYNJ-oi5tHmmAvt4-5" target="D8_jtYNJ-oi5tHmmAvt4-15">
          <mxGeometry relative="1" as="geometry" />
        </mxCell>
        <mxCell id="D8_jtYNJ-oi5tHmmAvt4-5" value="&lt;span style=&quot;font-family: , &amp;#34;helvetica neue&amp;#34; , , &amp;#34;pingfang sc&amp;#34; , &amp;#34;microsoft yahei&amp;#34; , &amp;#34;stxihei&amp;#34; , &amp;#34;arial&amp;#34; , &amp;#34;helvetica&amp;#34; , sans-serif ; font-size: 14px ; font-weight: 700 ; background-color: rgb(255 , 255 , 255)&quot;&gt;飞桨核心技术保持领先，有力支撑生态构建，有力支持公司业务&lt;/span&gt;" style="rounded=1;whiteSpace=wrap;html=1;" vertex="1" parent="1">
          <mxGeometry x="325" y="180" width="220" height="60" as="geometry" />
        </mxCell>
        <mxCell id="D8_jtYNJ-oi5tHmmAvt4-28" style="edgeStyle=orthogonalEdgeStyle;rounded=0;orthogonalLoop=1;jettySize=auto;html=1;exitX=1;exitY=0.25;exitDx=0;exitDy=0;entryX=0;entryY=0.5;entryDx=0;entryDy=0;fontColor=#000000;" edge="1" parent="1" source="D8_jtYNJ-oi5tHmmAvt4-6" target="D8_jtYNJ-oi5tHmmAvt4-13">
          <mxGeometry relative="1" as="geometry" />
        </mxCell>
        <mxCell id="D8_jtYNJ-oi5tHmmAvt4-29" style="edgeStyle=orthogonalEdgeStyle;rounded=0;orthogonalLoop=1;jettySize=auto;html=1;exitX=1;exitY=0.75;exitDx=0;exitDy=0;entryX=0;entryY=0.5;entryDx=0;entryDy=0;fontColor=#000000;" edge="1" parent="1" source="D8_jtYNJ-oi5tHmmAvt4-6" target="D8_jtYNJ-oi5tHmmAvt4-14">
          <mxGeometry relative="1" as="geometry" />
        </mxCell>
        <mxCell id="D8_jtYNJ-oi5tHmmAvt4-6" value="&lt;span style=&quot;font-size: 14px ; font-weight: 700 ; background-color: rgb(255 , 255 , 255)&quot;&gt;训练框架生态发展基础设施完善，重点场景和业务落地持续提升行业影响力&lt;/span&gt;" style="rounded=1;whiteSpace=wrap;html=1;" vertex="1" parent="1">
          <mxGeometry x="320" y="330" width="220" height="60" as="geometry" />
        </mxCell>
        <mxCell id="D8_jtYNJ-oi5tHmmAvt4-30" style="edgeStyle=orthogonalEdgeStyle;rounded=0;orthogonalLoop=1;jettySize=auto;html=1;exitX=1;exitY=0.25;exitDx=0;exitDy=0;entryX=0;entryY=0.5;entryDx=0;entryDy=0;fontColor=#000000;" edge="1" parent="1" source="D8_jtYNJ-oi5tHmmAvt4-7" target="D8_jtYNJ-oi5tHmmAvt4-17">
          <mxGeometry relative="1" as="geometry" />
        </mxCell>
        <mxCell id="D8_jtYNJ-oi5tHmmAvt4-31" style="edgeStyle=orthogonalEdgeStyle;rounded=0;orthogonalLoop=1;jettySize=auto;html=1;exitX=1;exitY=0.75;exitDx=0;exitDy=0;entryX=0;entryY=0.5;entryDx=0;entryDy=0;fontColor=#000000;" edge="1" parent="1" source="D8_jtYNJ-oi5tHmmAvt4-7" target="D8_jtYNJ-oi5tHmmAvt4-18">
          <mxGeometry relative="1" as="geometry" />
        </mxCell>
        <mxCell id="D8_jtYNJ-oi5tHmmAvt4-7" value="&lt;span style=&quot;font-size: 14px ; font-weight: 700 ; background-color: rgb(255 , 255 , 255)&quot;&gt;提升框架扩展能力，探索新一代框架架构&lt;/span&gt;" style="rounded=1;whiteSpace=wrap;html=1;" vertex="1" parent="1">
          <mxGeometry x="320" y="460" width="220" height="60" as="geometry" />
        </mxCell>
        <mxCell id="D8_jtYNJ-oi5tHmmAvt4-32" style="edgeStyle=orthogonalEdgeStyle;rounded=0;orthogonalLoop=1;jettySize=auto;html=1;entryX=0;entryY=0.5;entryDx=0;entryDy=0;fontColor=#000000;" edge="1" parent="1" target="D8_jtYNJ-oi5tHmmAvt4-19">
          <mxGeometry relative="1" as="geometry">
            <mxPoint x="540" y="615" as="sourcePoint" />
          </mxGeometry>
        </mxCell>
        <mxCell id="D8_jtYNJ-oi5tHmmAvt4-33" style="edgeStyle=orthogonalEdgeStyle;rounded=0;orthogonalLoop=1;jettySize=auto;html=1;exitX=1;exitY=0.75;exitDx=0;exitDy=0;entryX=0;entryY=0.5;entryDx=0;entryDy=0;fontColor=#000000;" edge="1" parent="1" source="D8_jtYNJ-oi5tHmmAvt4-8" target="D8_jtYNJ-oi5tHmmAvt4-20">
          <mxGeometry relative="1" as="geometry" />
        </mxCell>
        <mxCell id="D8_jtYNJ-oi5tHmmAvt4-8" value="&lt;span style=&quot;font-size: 14px ; font-weight: 700 ; background-color: rgb(255 , 255 , 255)&quot;&gt;组织架构建设，个人能力提升&lt;/span&gt;" style="rounded=1;whiteSpace=wrap;html=1;" vertex="1" parent="1">
          <mxGeometry x="325" y="590" width="215" height="60" as="geometry" />
        </mxCell>
        <mxCell id="D8_jtYNJ-oi5tHmmAvt4-12" value="动态图功能完善和子功能开发" style="rounded=0;whiteSpace=wrap;html=1;fontColor=#000000;" vertex="1" parent="1">
          <mxGeometry x="590" y="190" width="220" height="40" as="geometry" />
        </mxCell>
        <mxCell id="D8_jtYNJ-oi5tHmmAvt4-13" value="DeePMD生态合作" style="rounded=0;whiteSpace=wrap;html=1;fontColor=#000000;" vertex="1" parent="1">
          <mxGeometry x="590" y="310" width="220" height="40" as="geometry" />
        </mxCell>
        <mxCell id="D8_jtYNJ-oi5tHmmAvt4-14" value="国家网格部署" style="rounded=0;whiteSpace=wrap;html=1;fontColor=#000000;" vertex="1" parent="1">
          <mxGeometry x="590" y="370" width="220" height="40" as="geometry" />
        </mxCell>
        <mxCell id="D8_jtYNJ-oi5tHmmAvt4-15" value="编译优化" style="rounded=0;whiteSpace=wrap;html=1;fontColor=#000000;" vertex="1" parent="1">
          <mxGeometry x="590" y="250" width="220" height="40" as="geometry" />
        </mxCell>
        <mxCell id="D8_jtYNJ-oi5tHmmAvt4-16" value="动态图重构主体方案设计和整体功能实现" style="rounded=0;whiteSpace=wrap;html=1;fontColor=#000000;" vertex="1" parent="1">
          <mxGeometry x="590" y="130" width="220" height="40" as="geometry" />
        </mxCell>
        <mxCell id="D8_jtYNJ-oi5tHmmAvt4-17" value="科学计算框架能力支持" style="rounded=0;whiteSpace=wrap;html=1;fontColor=#000000;" vertex="1" parent="1">
          <mxGeometry x="590" y="440" width="220" height="40" as="geometry" />
        </mxCell>
        <mxCell id="D8_jtYNJ-oi5tHmmAvt4-18" value="分布式百万亿规模模型支持" style="rounded=0;whiteSpace=wrap;html=1;fontColor=#000000;" vertex="1" parent="1">
          <mxGeometry x="590" y="500" width="220" height="40" as="geometry" />
        </mxCell>
        <mxCell id="D8_jtYNJ-oi5tHmmAvt4-19" value="新人培养" style="rounded=0;whiteSpace=wrap;html=1;fontColor=#000000;" vertex="1" parent="1">
          <mxGeometry x="590" y="570" width="220" height="40" as="geometry" />
        </mxCell>
        <mxCell id="D8_jtYNJ-oi5tHmmAvt4-20" value="技术分享" style="rounded=0;whiteSpace=wrap;html=1;fontColor=#000000;" vertex="1" parent="1">
          <mxGeometry x="590" y="630" width="220" height="40" as="geometry" />
        </mxCell>
      </root>
    </mxGraphModel>
  </diagram>
</mxfile>
